<svg width="1920" height="1043" fill="none" xmlns="http://www.w3.org/2000/svg"><path d="M2277.66 4.211c-5.77-5.238-34.65 2.998-104.02 77.844-86.71 93.558 31.74 247.782-128.01 331.139-159.76 83.358-269.58-214.606-476.96-171.039-207.37 43.566-127.95 273.764-267.08 317.551-139.14 43.786-260.18-123.585-444.934-51.696-184.75 71.889-106.945 351.574-256.133 416.461C451.334 989.358 198.46 744.147-22.368 820.409" stroke="#5360FE" stroke-width="2"/><path d="M2582.57 124.432c-5.68-5.757-38.35-.239-123.57 67.889-106.53 85.161 4.45 249.89-180.92 318.082-185.36 68.193-269.26-238.98-501.96-214.877-232.69 24.102-173.81 260.909-331.72 291.587-157.9 30.678-270.11-147.395-481.463-92.959-211.357 54.435-160.316 340.409-331.829 391.178-171.512 50.769-418.712-217.154-670.16-161.721" stroke="#6CE2F8" stroke-width="3"/><circle cx=".001" cy="188.543" r="38.72" fill="#5360FE"/><circle cx="160.016" cy="735.808" r="23.581" fill="#04D7CD"/><circle cx="727.838" cy="804.889" r="12.871" fill="#04D7CD"/><circle cx="925.442" cy="585.275" r="12.871" fill="#04D7CD"/><circle cx="1799.54" cy="191.539" r="41.716" fill="#5360FE"/></svg>