<svg width="1920" height="2770" fill="none" xmlns="http://www.w3.org/2000/svg"><path d="M2248.49 1887.25c-.68-8.41-29.59-23.28-139.81-15.51-137.77 9.72-158.36 219.26-346.29 166.84-187.92-52.42-54.09-369.12-250.18-488.23-196.09-119.11-303.76 121.56-446.1 53.14-142.336-68.41-114.055-290.25-313.235-370.23-199.18-79.98-344.769 198.58-510.671 139.39C76.302 1313.47 58.06 932.535-172.86 829.299" stroke="#5360FE" stroke-width="2"/><path d="M2604.11 1924.37c-3.79-9.29-48-27.24-194.56-24.75-183.19 3.12-139.6 232.48-411.89 164.49-272.29-67.99-199.14-409.01-505.23-550.8-306.08-141.8-369.76 117.02-585.787 33.94-216.03-83.08-253.412-325.55-550.338-424.48-296.926-98.92-399.007 199.49-643.789 125.27-244.782-74.22-399.411-494.251-747.236-620.502" stroke="#6CE2F8" stroke-width="3"/><circle cx="1691.36" cy="1992.26" r="13.935" transform="rotate(38.06 1691.36 1992.26)" fill="#5360FE"/><circle cx="213.396" cy="1106.15" r="26.332" transform="rotate(38.06 213.396 1106.15)" fill="#04D7CD"/></svg>